<?xml version="1.0" encoding="UTF-8"?>
<svg width="38px" height="34px" viewBox="0 0 38 34" version="1.1" xmlns="http://www.w3.org/2000/svg" xmlns:xlink="http://www.w3.org/1999/xlink">
    <!-- Generator: sketchtool 44.1 (41455) - http://www.bohemiancoding.com/sketch -->
    <title>491901A8-F5E8-4C1D-B1DC-6C1B0936F0E5</title>
    <desc>Created with sketchtool.</desc>
    <defs></defs>
    <g id="Screens" stroke="none" stroke-width="1" fill="none" fill-rule="evenodd">
        <g id="1-Main-A" transform="translate(-690.000000, -2164.000000)">
            <rect id="Rectangle-4" fill="#D8D8D8" opacity="0" x="0" y="2090" width="1280" height="340"></rect>
            <g id="Page-1" transform="translate(690.000000, 2164.000000)" fill="#FFFFFF">
                <path d="M1.94835796,7.31023908 C1.59018482,7.31023908 1.29890531,7.6015186 1.29890531,7.95969174 L1.29890531,31.98944 C1.29890531,32.3476131 1.59018482,32.6388926 1.94835796,32.6388926 L35.719896,32.6388926 C36.0780691,32.6388926 36.3693487,32.3476131 36.3693487,31.98944 L36.3693487,7.95969174 C36.3693487,7.6015186 36.0780691,7.31023908 35.719896,7.31023908 L1.94835796,7.31023908 Z M35.719896,33.9377979 L1.94835796,33.9377979 C0.873838547,33.9377979 0,33.0639594 0,31.98944 L0,7.95969174 C0,6.88517232 0.873838547,6.01133377 1.94835796,6.01133377 L35.719896,6.01133377 C36.7944154,6.01133377 37.668254,6.88517232 37.668254,7.95969174 L37.668254,31.98944 C37.668254,33.0639594 36.7944154,33.9377979 35.719896,33.9377979 L35.719896,33.9377979 Z" id="Fill-1"></path>
                <path d="M9.74178982,7.31056381 C9.47811204,7.31056381 9.23067058,7.1488501 9.13325268,6.8874454 C9.00790832,6.55135365 9.17903909,6.17726892 9.51513084,6.05224929 L25.5406998,0.0818310345 C26.1508606,-0.146451574 26.8396051,0.11755093 27.143549,0.693615435 L30.1248614,6.35814149 C30.2920954,6.67572384 30.1703231,7.06864269 29.8527407,7.2352273 C29.5354831,7.40278608 29.1425642,7.28036426 28.9756549,6.96310664 L25.9943425,1.29890531 L9.9684488,7.26932356 C9.89376174,7.29725003 9.81712633,7.31056381 9.74178982,7.31056381" id="Fill-3"></path>
                <path d="M24.0297482,17.0520289 C23.6715751,17.0520289 23.3802956,17.3433084 23.3802956,17.7014816 L23.3802956,22.2476501 C23.3802956,22.6058233 23.6715751,22.8971028 24.0297482,22.8971028 L36.3693487,22.8971028 L36.3693487,17.0520289 L24.0297482,17.0520289 Z M37.668254,24.1960081 L24.0297482,24.1960081 C22.9552288,24.1960081 22.0813903,23.3221696 22.0813903,22.2476501 L22.0813903,17.7014816 C22.0813903,16.6269621 22.9552288,15.7531236 24.0297482,15.7531236 L37.668254,15.7531236 L37.668254,24.1960081 Z" id="Fill-5"></path>
                <path d="M26.3028325,19.3251132 C25.9446594,19.3251132 25.6533799,19.6163927 25.6533799,19.9745658 C25.6533799,20.332739 25.9446594,20.6240185 26.3028325,20.6240185 C26.6610057,20.6240185 26.9522852,20.332739 26.9522852,19.9745658 C26.9522852,19.6163927 26.6610057,19.3251132 26.3028325,19.3251132 M26.3028325,21.9229238 C25.2283131,21.9229238 24.3544745,21.0490853 24.3544745,19.9745658 C24.3544745,18.9000464 25.2283131,18.0262079 26.3028325,18.0262079 C27.3773519,18.0262079 28.2511905,18.9000464 28.2511905,19.9745658 C28.2511905,21.0490853 27.3773519,21.9229238 26.3028325,21.9229238" id="Fill-7"></path>
            </g>
        </g>
    </g>
</svg>