<?xml version="1.0" encoding="UTF-8"?>
<svg width="37px" height="37px" viewBox="0 0 37 37" version="1.1" xmlns="http://www.w3.org/2000/svg" xmlns:xlink="http://www.w3.org/1999/xlink">
    <!-- Generator: sketchtool 44.1 (41455) - http://www.bohemiancoding.com/sketch -->
    <title>E7CFE411-353A-4D66-A1ED-C3DBA9EC3387</title>
    <desc>Created with sketchtool.</desc>
    <defs></defs>
    <g id="Screens" stroke="none" stroke-width="1" fill="none" fill-rule="evenodd">
        <g id="1-Main-A" transform="translate(-992.000000, -2162.000000)">
            <rect id="Rectangle-4" fill="#D8D8D8" opacity="0" x="0" y="2090" width="1280" height="340"></rect>
            <g id="Page-1" transform="translate(992.000000, 2162.000000)" fill="#FFFFFF">
                <g id="Cashback" transform="translate(0.000000, 0.085608)">
                    <path d="M34.8906096,6.88409397 C35.0768702,9.27188901 35.2584819,11.5983181 35.4399926,13.9247472 L35.3623755,13.9778972 C33.391934,12.7233945 31.4214926,11.4689932 29.4026415,10.1837567 C29.919583,9.86921814 30.3774021,9.5903834 30.8355245,9.31215725 C31.0656468,9.17248631 31.2944553,9.03007671 31.5281149,8.89649164 C31.6824394,8.80824638 31.6954766,8.71624816 31.5910777,8.57140422 C30.5862,7.17895485 29.4015298,5.96451749 28.0316096,4.93245366 C26.67695,3.91185157 25.2027319,3.11297838 23.6048117,2.54719439 C22.5556681,2.17575284 21.4800457,1.92024731 20.376833,1.76424592 C19.0847319,1.58156809 17.791216,1.56503478 16.4978011,1.6907082 C15.2055989,1.81638162 13.9403809,2.09227485 12.7133649,2.52396662 C10.1341149,3.43116847 7.89726915,4.87423207 6.02688085,6.87658805 C4.39288085,8.62587284 3.19608298,10.6394877 2.42921064,12.9131725 C1.66961489,15.1648467 1.41857234,17.4784954 1.65496064,19.8325138 C1.97604043,23.032571 3.13291809,25.9147424 5.11508298,28.4488014 C6.90775319,30.7404396 9.14621596,32.4545277 11.8272372,33.5785897 C13.3740191,34.2270403 14.9832585,34.6115665 16.6535404,34.777711 C18.0562053,34.9171791 19.4501787,34.8703178 20.8305085,34.6350985 C24.7440032,33.9682889 28.0318117,32.1465822 30.6648277,29.1558793 C32.0164553,27.620716 33.0415457,25.885733 33.7445457,23.9646236 C34.1626468,22.8223039 34.4801894,21.6495548 34.5989394,20.4327845 C34.6628117,19.7779438 34.7099074,19.1211759 34.7486149,18.4642051 C34.759934,18.2713842 34.8355298,18.2202628 35.0126947,18.2252329 C35.3661149,18.2351732 35.7204447,18.2392304 36.0735617,18.2257401 C36.2823596,18.217727 36.3293543,18.3065809 36.3266255,18.4958517 C36.3110617,19.5455646 36.2135351,20.5844243 36.0215138,21.6184154 C35.5282213,24.2754092 34.4918117,26.6947494 32.9128915,28.879986 C31.1553915,31.3125123 28.9294606,33.1935564 26.247833,34.5267699 C24.9327904,35.1807991 23.5539766,35.6530634 22.1197798,35.9781508 C20.2954766,36.391585 18.4496468,36.5048838 16.5984606,36.3431008 C13.0517266,36.0329238 9.85224787,34.7844055 7.03095,32.59217 C4.79794468,30.8570856 3.06187021,28.7125229 1.82080638,26.1661907 C1.19047128,24.8729412 0.733965957,23.5203543 0.41682766,22.1151246 C0.0206574468,20.3601597 -0.0691882979,18.5844013 0.047237234,16.7997169 C0.148098936,15.253092 0.467056383,13.7420694 0.977125532,12.275778 C2.08448191,9.09225412 3.92323723,6.41132251 6.49864681,4.24819787 C8.23815745,2.78718093 10.1873755,1.69506975 12.3416521,0.967502785 C14.1841468,0.345221547 16.0752532,0.0340302128 18.0149713,0.0165840232 C19.5690298,0.00258649903 21.1021681,0.175222631 22.6155989,0.548388511 C25.9360511,1.36693938 28.7963596,2.9949123 31.1664074,5.46233095 C31.8237266,6.14658673 32.3897851,6.92101497 32.9750457,7.67180971 C33.1279553,7.86797791 33.2320511,7.87903393 33.4237691,7.75599772 C33.8132691,7.50617234 34.2143915,7.27430031 34.6112691,7.03613954 C34.6816096,6.9939441 34.755184,6.95753025 34.8906096,6.88409397" id="Fill-1"></path>
                </g>
                <path d="M17.2167691,27.9869846 C17.2166681,27.5980968 17.2074713,27.2090062 17.2202053,26.8206256 C17.2272798,26.6051855 17.142083,26.5438195 16.9353064,26.503247 C15.4792798,26.2178192 14.2222479,25.5990881 13.4340511,24.2647589 C12.9443968,23.4355577 12.8097798,22.5098954 12.7702638,21.5641496 C12.7638968,21.4119012 12.8166521,21.3520567 12.9719872,21.3548968 C13.3592638,21.3620984 13.7468436,21.3643299 14.1340191,21.353781 C14.3121947,21.3490137 14.3483755,21.4182913 14.3689926,21.5875802 C14.4351894,22.1288178 14.472684,22.6839515 14.6288277,23.200947 C14.8323702,23.8750597 15.4102532,24.2539057 16.0055191,24.5419707 C17.5119766,25.2709577 19.0017585,25.2197349 20.4150351,24.2923482 C21.1476468,23.8115637 21.5129926,23.0734479 21.6385138,22.2190917 C21.7237106,21.6399188 21.5060191,21.1574099 21.0896362,20.7627406 C20.5425777,20.2443251 19.890817,19.892054 19.1971149,19.6230581 C17.8500351,19.1007882 16.561067,18.4713053 15.3993383,17.6021402 C14.0648915,16.6039545 13.5325883,15.2684081 13.7196574,13.614063 C13.8827745,12.1731295 14.7577851,11.2779979 15.9430617,10.6192014 C16.2704074,10.437335 16.6358543,10.3175446 16.9941255,10.2015072 C17.1668436,10.1455171 17.2188915,10.0637634 17.2178809,9.89650317 C17.2129287,9.14428839 17.2232372,8.39187075 17.2100989,7.63985884 C17.2062585,7.41589845 17.2722532,7.34317219 17.4956043,7.35412677 C17.8569074,7.37177582 18.2198277,7.36792143 18.5816362,7.35727114 C18.7615298,7.35199671 18.8133755,7.41975284 18.8115564,7.59299756 C18.8047851,8.29449667 18.8247957,8.99650294 18.8020564,9.69729203 C18.7924553,9.99134147 18.9336415,10.0506788 19.1690191,10.0837454 C20.0787957,10.2115489 20.9016574,10.5610813 21.6332585,11.1143892 C22.5266628,11.7901248 23.0773596,12.6782575 23.2321894,13.8011024 C23.2876734,14.2031762 23.2762532,14.2209267 22.8810936,14.2223467 C22.5442479,14.2235639 22.2074021,14.2189995 21.8705564,14.2223467 C21.7414979,14.2237668 21.6690351,14.1891787 21.6587266,14.0411904 C21.5784819,12.8842646 20.9082266,12.1845912 19.8641362,11.8402318 C18.8148915,11.4942496 17.7466468,11.449214 16.7068011,11.9074808 C15.7878277,12.3123947 15.325966,13.0170382 15.2637106,14.0370317 C15.1920564,15.2099836 15.7350723,15.995975 16.6721362,16.5895512 C17.6350723,17.1995593 18.6471255,17.7046873 19.7117319,18.1131513 C20.5077106,18.418561 21.260434,18.8140418 21.9090617,19.383173 C23.5218383,20.7979373 23.5192106,23.0276009 22.3612213,24.5197573 C21.5085457,25.6186643 20.38795,26.2859811 19.0157053,26.5122744 C18.8328809,26.5425009 18.8071096,26.6423094 18.8075138,26.7929349 C18.8097372,27.5790277 18.8005404,28.365222 18.8131734,29.1510106 C18.8168117,29.3802454 18.7561734,29.4645348 18.5182691,29.4519573 C18.1571681,29.4329897 17.7941468,29.4420171 17.4322372,29.4510444 C17.2666947,29.4551017 17.2110085,29.39333 17.2143436,29.2293156 C17.2225298,28.8153743 17.2169713,28.4011287 17.2167691,27.9869846" id="Fill-4"></path>
            </g>
        </g>
    </g>
</svg>