<?xml version="1.0" encoding="UTF-8"?>
<svg width="30px" height="49px" viewBox="0 0 30 49" version="1.1" xmlns="http://www.w3.org/2000/svg" xmlns:xlink="http://www.w3.org/1999/xlink">
    <!-- Generator: sketchtool 44.1 (41455) - http://www.bohemiancoding.com/sketch -->
    <title>61A7EDFF-31F3-45A1-8FC1-A94E870D92FC</title>
    <desc>Created with sketchtool.</desc>
    <defs>
        <polygon id="path-1" points="0 48.5793032 28.6473226 48.5793032 28.6473226 -0.000374193548 0 -0.000374193548"></polygon>
    </defs>
    <g id="Screens" stroke="none" stroke-width="1" fill="none" fill-rule="evenodd">
        <g id="3-Grid" transform="translate(-481.000000, -15.000000)">
            <g id="ReKanken-Ico-B" transform="translate(482.000000, 15.000000)">
                <path d="M25.3908097,48.2988452 L3.23480968,48.2988452 C1.60332581,48.2988452 0.280551613,46.976071 0.280551613,45.3445871 L0.280551613,15.8974258 C0.280551613,12.8243613 2.77174516,10.3341032 5.84387419,10.3341032 L22.7817452,10.3341032 C25.8548097,10.3341032 28.3450677,12.8243613 28.3450677,15.8974258 L28.3450677,45.3445871 C28.3450677,46.976071 27.0222935,48.2988452 25.3908097,48.2988452 Z" id="Stroke-1" stroke="#000000" stroke-width="0.6" stroke-linecap="round" stroke-linejoin="bevel"></path>
                <path d="M0.28073871,16.4809806 C0.28073871,12.2797226 4.73364194,8.87362581 10.2277387,8.87362581 L18.3982548,8.87362581 C23.8923516,8.87362581 28.3452548,12.2797226 28.3452548,16.4809806" id="Stroke-3" stroke="#000000" stroke-width="0.6" stroke-linecap="round" stroke-linejoin="bevel"></path>
                <path d="M23.5198419,43.9539903 L5.10577742,43.9539903 C3.47429355,43.9539903 2.15151935,42.6312161 2.15151935,40.9997323 L2.15151935,30.0695387 C2.15151935,28.4380548 3.47429355,27.1152806 5.10577742,27.1152806 L23.5198419,27.1152806 C25.1513258,27.1152806 26.4741,28.4380548 26.4741,30.0695387 L26.4741,40.9997323 C26.4741,42.6312161 25.1513258,43.9539903 23.5198419,43.9539903 Z" id="Stroke-5" stroke="#000000" stroke-width="0.6" stroke-linecap="round" stroke-linejoin="bevel"></path>
                <path d="M2.15170645,32.7678484 C2.15170645,32.7678484 3.08719032,33.7033323 4.95815806,33.7033323 L22.7323516,33.7033323 C24.6033194,33.7033323 26.4742871,32.7678484 26.4742871,32.7678484" id="Stroke-7" stroke="#000000" stroke-width="0.6" stroke-linecap="round" stroke-linejoin="bevel"></path>
                <path d="M17.1194484,17.7604419 C17.1194484,19.3105387 15.8630935,20.5668935 14.3129968,20.5668935 C12.7629,20.5668935 11.5065452,19.3105387 11.5065452,17.7604419 C11.5065452,16.2103452 12.7629,14.9539903 14.3129968,14.9539903 C15.8630935,14.9539903 17.1194484,16.2103452 17.1194484,17.7604419 Z" id="Stroke-9" stroke="#000000" stroke-width="0.6" stroke-linecap="round" stroke-linejoin="bevel" stroke-dasharray="4.183,2.091"></path>
                <path d="M15.8125774,17.7604419 C15.8125774,18.5892806 15.1409,19.2609581 14.3129968,19.2609581 C13.4841581,19.2609581 12.8124806,18.5892806 12.8124806,17.7604419 C12.8124806,16.9316032 13.4841581,16.2599258 14.3129968,16.2599258 C15.1409,16.2599258 15.8125774,16.9316032 15.8125774,17.7604419 Z" id="Stroke-11" stroke="#000000" stroke-width="0.6" stroke-linecap="round" stroke-linejoin="bevel" stroke-dasharray="1.006,1.006"></path>
                <polygon id="Stroke-13" stroke="#000000" stroke-width="0.6" stroke-linecap="round" stroke-linejoin="bevel" points="19.9259 14.9539903 20.8613839 13.0830226 21.7968677 13.0830226 22.7323516 14.9539903 22.7323516 24.308829 19.9259 24.308829"></polygon>
                <mask id="mask-2" fill="white">
                    <use xlink:href="#path-1"></use>
                </mask>
                <g id="Clip-16"></g>
                <polygon id="Stroke-15" stroke="#000000" stroke-width="0.6" stroke-linecap="round" stroke-linejoin="bevel" mask="url(#mask-2)" points="26.4966452 45.8504968 28.3666774 45.8504968 28.3666774 39.6098839 26.4966452 39.6098839"></polygon>
                <polygon id="Stroke-17" stroke="#000000" stroke-width="0.6" stroke-linecap="round" stroke-linejoin="bevel" mask="url(#mask-2)" points="0.288129032 45.8504968 2.15816129 45.8504968 2.15816129 39.6098839 0.288129032 39.6098839"></polygon>
                <path d="M7.29686774,8.87334516 C7.29686774,6.06689355 6.45212581,2.32495806 14.3129968,2.32495806 C22.1738677,2.32495806 21.3291258,7.00237742 21.3291258,8.87334516" id="Stroke-18" stroke="#000000" stroke-width="0.6" stroke-linecap="round" stroke-linejoin="bevel" mask="url(#mask-2)"></path>
                <path d="M7.3255871,13.0830226 L7.3255871,8.87334516 C7.3255871,5.78437742 6.45184516,0.280925806 14.3127161,0.280925806 C22.1735871,0.280925806 21.3288452,6.44763548 21.3288452,8.87334516 L21.3288452,13.0830226" id="Stroke-19" stroke="#000000" stroke-width="0.6" stroke-linecap="round" stroke-linejoin="bevel" mask="url(#mask-2)"></path>
                <path d="M20.3936419,14.9539903 L22.2646097,14.9539903" id="Stroke-20" stroke="#000000" stroke-width="0.6" stroke-linecap="round" stroke-linejoin="bevel" mask="url(#mask-2)"></path>
                <polygon id="Stroke-21" stroke="#000000" stroke-width="0.6" stroke-linecap="round" stroke-linejoin="bevel" mask="url(#mask-2)" points="5.89364194 14.9539903 6.82912581 13.0830226 7.76460968 13.0830226 8.70009355 14.9539903 8.70009355 24.308829 5.89364194 24.308829"></polygon>
                <path d="M6.36138387,14.9539903 L8.23235161,14.9539903" id="Stroke-22" stroke="#000000" stroke-width="0.6" stroke-linecap="round" stroke-linejoin="bevel" mask="url(#mask-2)"></path>
                <polygon id="Stroke-23" stroke="#000000" stroke-width="0.6" stroke-linecap="round" stroke-linejoin="bevel" mask="url(#mask-2)" points="4.95806452 36.0269806 6.78974194 36.0269806 6.78974194 33.7032387 4.95806452 33.7032387"></polygon>
            </g>
        </g>
    </g>
</svg>