<?xml version="1.0" encoding="UTF-8"?>
<svg width="30px" height="23px" viewBox="0 0 30 23" version="1.1" xmlns="http://www.w3.org/2000/svg" xmlns:xlink="http://www.w3.org/1999/xlink">
    <!-- Generator: sketchtool 44.1 (41455) - http://www.bohemiancoding.com/sketch -->
    <title>5F5FBAA4-EA43-4328-A4EC-6E9B30850887</title>
    <desc>Created with sketchtool.</desc>
    <defs></defs>
    <g id="Screens" stroke="none" stroke-width="1" fill="none" fill-rule="evenodd" stroke-linecap="round" stroke-linejoin="bevel">
        <g id="3-Grid" transform="translate(-1015.000000, -34.000000)" stroke="#000000" stroke-width="0.6">
            <g id="Accesorise-Ico-W" transform="translate(1015.000000, 35.000000)">
                <path d="M27.3911,0.2999 L20.0871,0.2999 L14.8061,1.7359 L9.6221,0.2999 L2.2951,0.2999 C1.1931,0.2999 0.3001,1.1939 0.3001,2.2959 L0.3001,19.2739 C0.3001,20.3759 1.1931,21.2699 2.2951,21.2699 L27.3911,21.2699 C28.4931,21.2699 29.3871,20.3759 29.3871,19.2739 L29.3871,2.2959 C29.3871,1.1939 28.4931,0.2999 27.3911,0.2999 Z" id="Stroke-1"></path>
                <path d="M1.6197,3.1485 L1.6197,3.6485" id="Stroke-3"></path>
                <path d="M1.6197,5.605 L1.6197,18.421 C1.6197,19.257 2.2977,19.935 3.1337,19.935 L26.5527,19.935 C27.3897,19.935 28.0667,19.257 28.0667,18.421 L28.0667,4.627" id="Stroke-5" stroke-dasharray="0.978,1.956"></path>
                <path d="M28.0669,3.6485 L28.0669,3.1485" id="Stroke-7"></path>
                <path d="M22.1265,10.6553 C22.1085,10.6873 22.0945,10.7293 22.0985,10.7643 C22.1145,10.8893 22.1375,11.0133 22.1605,11.1373 C22.2335,11.5413 22.2415,11.9413 22.0985,12.3333 C22.0085,12.5833 21.8615,12.7953 21.6745,12.9793 C21.5275,13.1233 21.3765,13.2633 21.2185,13.3963 C20.8375,13.7183 20.5955,14.0173 20.4245,14.4873 C20.3675,14.6413 20.2655,14.8843 20.2035,15.0373 C20.1855,15.0833 20.1585,15.1273 20.1315,15.1693 C20.0595,15.2843 19.9555,15.3423 19.8175,15.3283 C19.6705,15.3143 19.5495,15.2503 19.4965,15.1083 C19.4415,14.9603 19.3985,14.8083 19.3605,14.6563 C19.2865,14.3623 19.1995,14.0733 19.0235,13.8203 C18.8765,13.6083 18.6965,13.4263 18.5005,13.2603 C18.2755,13.0713 18.1585,12.8273 18.1215,12.5403 C18.1095,12.4433 18.0985,12.3463 18.0865,12.2493 L18.0865,11.0003 C18.0895,10.9843 18.0955,10.9683 18.0955,10.9523 C18.1015,10.7893 18.1045,10.6263 18.1125,10.4633 C18.1295,10.0793 18.1495,9.6963 18.1685,9.3123 C18.1735,9.2143 18.1825,9.1153 18.1895,9.0013 C18.2295,9.0393 18.2615,9.0623 18.2835,9.0933 C18.3575,9.1973 18.4275,9.3033 18.4995,9.4103 C18.6085,9.5733 18.7115,9.7413 18.8275,9.8993 C18.9275,10.0363 18.9995,10.0433 19.1545,9.9723 C19.2585,9.9263 19.3655,9.8823 19.4745,9.8473 C19.6665,9.7863 19.8645,9.7563 20.0655,9.7573 C20.2705,9.7593 20.4655,9.8133 20.6585,9.8723 C20.7415,9.8973 20.8265,9.9183 20.9125,9.9323 C20.9975,9.9463 21.0535,9.8973 21.0825,9.8003 C21.1055,9.7213 21.0815,9.6623 21.0045,9.6263 C20.8305,9.5453 20.6465,9.4933 20.4555,9.4713 C20.1955,9.4413 19.9415,9.4793 19.6885,9.5353 C19.5965,9.5553 19.5055,9.5803 19.3995,9.6073 C19.5385,9.4803 19.6885,9.4053 19.8495,9.3513 C20.3525,9.1823 20.8675,9.0863 21.3995,9.0923 C21.5255,9.0933 21.6445,9.0753 21.7295,8.9673 C21.8335,8.8343 21.9295,8.6953 22.0665,8.5923 L22.0775,8.5923 C22.1035,8.7803 22.1285,8.9673 22.1585,9.1543 C22.1605,9.1663 22.1935,9.1813 22.2135,9.1823 C22.4745,9.1963 22.7285,9.2483 22.9735,9.3363 C23.4565,9.5073 23.8765,9.7823 24.2615,10.1143 C24.8785,10.6463 25.2615,11.3283 25.5195,12.0893 C25.6695,12.5343 25.7435,12.9933 25.7175,13.4633 C25.6755,14.2493 25.5025,15.0023 25.0875,15.6813 C24.6325,16.4273 23.9795,16.9383 23.1685,17.2543 C22.8105,17.3923 22.4435,17.4933 22.0615,17.5303 C21.6325,17.5703 21.2095,17.5293 20.7905,17.4313 C20.1925,17.2913 19.6415,17.0503 19.1515,16.6773 C18.9665,16.5373 18.8035,16.3763 18.6715,16.1843 C18.6665,16.1773 18.6615,16.1693 18.6515,16.1533 C18.7335,16.1623 18.8065,16.1753 18.8805,16.1793 C19.2545,16.1993 19.6155,16.1553 19.9325,15.9343 C20.1585,15.7783 20.3085,15.5553 20.4275,15.3143 C20.5315,15.1033 20.8305,14.2003 21.0025,14.0403" id="Stroke-9"></path>
                <path d="M21.0821,9.8004 C21.2981,9.3834 21.4941,9.1824 21.7291,8.9674" id="Stroke-11"></path>
                <path d="M22.1265,10.6553 C22.2755,10.0293 22.2315,9.5693 22.1585,9.1543" id="Stroke-13"></path>
            </g>
        </g>
    </g>
</svg>