<?xml version="1.0" encoding="UTF-8"?>
<svg width="31px" height="35px" viewBox="0 0 31 35" version="1.1" xmlns="http://www.w3.org/2000/svg" xmlns:xlink="http://www.w3.org/1999/xlink">
    <!-- Generator: sketchtool 44.1 (41455) - http://www.bohemiancoding.com/sketch -->
    <title>1887232C-67D4-4421-B92B-C4A48608B08F</title>
    <desc>Created with sketchtool.</desc>
    <defs></defs>
    <g id="Screens" stroke="none" stroke-width="1" fill="none" fill-rule="evenodd">
        <g id="3-Grid" transform="translate(-95.000000, -2351.000000)" stroke="#000000">
            <g id="Page-1" transform="translate(96.000000, 2352.000000)">
                <path d="M15.2954311,7.63449844 C15.2262909,7.75017031 15.1735957,7.90520156 15.1900409,8.03342031 C15.248925,8.49026406 15.3357482,8.94384219 15.420803,9.39707656 C15.6980713,10.8741703 15.7261872,12.3368266 15.1903945,13.7743891 C14.8505287,14.6867016 14.298114,15.4647797 13.5930957,16.1374984 C13.0403274,16.6651547 12.4689921,17.1769984 11.877675,17.6634047 C10.4446506,18.8422953 9.53256524,19.9342172 8.88696159,21.6533109 C8.6744128,22.2194672 8.28874817,23.1094359 8.05639451,23.6682016 C7.98637012,23.8366391 7.88522378,23.9944203 7.78496159,24.1489359 C7.51176037,24.5702016 7.1204372,24.7809203 6.60321159,24.7329672 C6.04885183,24.6814047 5.59457744,24.4467953 5.39458354,23.9246391 C5.18857744,23.3863266 5.02607134,22.8299672 4.88213232,22.2724047 C4.60415671,21.1950922 4.27684573,20.1411547 3.61638841,19.2145766 C3.06255915,18.4378734 2.3831811,17.7735766 1.64527256,17.1665141 C0.800559146,16.4716234 0.356540854,15.5819984 0.219851829,14.5308109 C0.173522561,14.1755453 0.132144512,13.8197641 0.0884676829,13.4641547 L0.0884676829,8.89588906 C0.0997847561,8.83796719 0.119235976,8.78038906 0.121357927,8.72195156 C0.143284756,8.12485781 0.155132317,7.52724844 0.183601829,6.93049844 C0.250089634,5.52679531 0.322943293,4.12343594 0.396504268,2.72024844 C0.415425,2.35931094 0.446193293,1.99888906 0.475546951,1.58140469 C0.623022561,1.71993594 0.745211585,1.80501406 0.827437195,1.91742031 C1.10594329,2.29915469 1.37207134,2.68931094 1.63979085,3.07826406 C2.05127256,3.67587344 2.43958963,4.28963906 2.87653476,4.86902969 C3.25282744,5.36798281 3.5214311,5.39290469 4.1069128,5.13646719 C4.49982744,4.96424844 4.9019372,4.80509219 5.31253476,4.67859219 C6.03470549,4.45618594 6.78127866,4.34274844 7.53899207,4.34790469 C8.30678476,4.35323281 9.04080305,4.55174844 9.77040061,4.76813906 C10.0825043,4.86060781 10.4023884,4.93709219 10.7240409,4.98796719 C11.0425104,5.03815469 11.2557665,4.85957656 11.3627482,4.50568594 C11.4495713,4.21865469 11.3602726,4.00002969 11.0699189,3.86837344 C10.4144128,3.57085781 9.72407134,3.38402969 9.00508354,3.30290469 C8.02721768,3.19256094 7.06897988,3.33057656 6.11799207,3.53562344 C5.77229085,3.61021719 5.43047988,3.70199844 5.03049207,3.79962344 C5.55284573,3.33401406 6.11781524,3.05918594 6.72345549,2.86204531 C8.61658963,2.24570156 10.556053,1.89181094 12.5597055,1.91329531 C13.0332543,1.91827969 13.4781567,1.85451406 13.8005165,1.45593594 C14.1918396,0.972279688 14.5543396,0.461982813 15.0694433,0.0859203125 L15.1113518,0.0859203125 C15.2091384,0.770670313 15.3032116,1.45610781 15.4131994,2.13913906 C15.420803,2.18520156 15.5477665,2.24123281 15.6218579,2.24501406 C16.604675,2.29571719 17.5583152,2.48701406 18.4840165,2.80652969 C20.2998762,3.43318594 21.8810835,4.43934219 23.3312604,5.65467031 C25.654797,7.60218594 27.0966628,10.0974672 28.0663945,12.8814984 C28.6336628,14.5107016 28.9084555,16.1892328 28.8140287,17.9086703 C28.6564738,20.7853422 28.0034433,23.5382641 26.4422177,26.0246078 C24.7276811,28.7548422 22.2708152,30.6239828 19.2164433,31.7764047 C17.8702421,32.2844672 16.4884982,32.6545141 15.0485774,32.7870297 C13.4348335,32.9358734 11.841425,32.7844516 10.2658762,32.4264359 C8.01519329,31.9149359 5.9411628,31.0309828 4.09471159,29.6673266 C3.40047988,29.1546234 2.78511402,28.5650922 2.28840061,27.8643578 C2.26912622,27.8372016 2.2526811,27.8084984 2.21377866,27.7478266 C2.52146159,27.7830609 2.79749207,27.8294672 3.07529085,27.8442484 C4.48426646,27.9209047 5.84213841,27.7552172 7.03679695,26.9503266 C7.88734573,26.3774672 8.44930915,25.5629516 8.89863232,24.6791703 C9.29083963,23.9077953 10.4156506,20.6040141 11.0647909,20.0199828" id="Stroke-1"></path>
                <path d="M11.3627835,4.50566875 C12.1777896,2.98079375 12.9135762,2.24327812 13.8005518,1.45591875" id="Stroke-3"></path>
                <path d="M15.2954311,7.63449844 C16.1338991,5.34409219 15.8845465,3.66074844 15.4709796,2.13913906" id="Stroke-5"></path>
            </g>
        </g>
    </g>
</svg>