<?xml version="1.0" encoding="UTF-8"?>
<svg width="35px" height="38px" viewBox="0 0 35 38" version="1.1" xmlns="http://www.w3.org/2000/svg" xmlns:xlink="http://www.w3.org/1999/xlink">
    <!-- Generator: sketchtool 44.1 (41455) - http://www.bohemiancoding.com/sketch -->
    <title>023677C6-57D5-443F-80E5-730F502EB0C0</title>
    <desc>Created with sketchtool.</desc>
    <defs></defs>
    <g id="Screens" stroke="none" stroke-width="1" fill="none" fill-rule="evenodd">
        <g id="3-Grid" transform="translate(-392.000000, -2351.000000)" fill="#000000">
            <g id="Page-1" transform="translate(392.000000, 2351.000000)">
                <path d="M4.64943333,12.4424779 C3.59943333,12.4424779 2.72276667,13.2707434 2.65376667,14.3276814 L1.3381,34.5043363 C1.30143333,35.0676106 1.49143333,35.6043186 1.87343333,36.0159292 C2.25576667,36.4278761 2.77443333,36.654531 3.33376667,36.654531 L31.6377667,36.654531 C32.1971,36.654531 32.7154333,36.4275398 33.0981,36.0159292 C33.4801,35.6039823 33.6704333,35.0676106 33.6334333,34.5043363 L32.3177667,14.3273451 C32.2487667,13.2704071 31.3721,12.4424779 30.3221,12.4424779 L4.64943333,12.4424779 Z M31.6377667,38 L3.33376667,38 C2.4151,38 1.5281,37.6122655 0.900433333,36.9356637 C0.272433333,36.2590619 -0.0529,35.3410088 0.0071,34.4165664 L1.32276667,14.2395752 C1.4381,12.4774513 2.89943333,11.0973451 4.64943333,11.0973451 L30.3221,11.0973451 C32.0721,11.0973451 33.5331,12.4774513 33.6484333,14.2392389 L34.9637667,34.4165664 C35.0244333,35.3410088 34.6984333,36.2590619 34.0707667,36.9356637 C33.4434333,37.6122655 32.5564333,38 31.6377667,38 L31.6377667,38 Z" id="Fill-1"></path>
                <path d="M28.4857,16.4778761 C28.1177,16.4778761 27.8190333,16.1765664 27.8190333,15.8053097 L27.8190333,14.2920354 C27.8190333,7.15307965 23.1837,1.34513274 17.4857,1.34513274 C11.7877,1.34513274 7.15236667,7.15307965 7.15236667,14.2920354 L7.15236667,15.8053097 C7.15236667,16.1765664 6.8537,16.4778761 6.4857,16.4778761 C6.1177,16.4778761 5.81903333,16.1765664 5.81903333,15.8053097 L5.81903333,14.2920354 C5.81903333,6.41123894 11.0527,0 17.4857,0 C23.9187,0 29.1523667,6.41123894 29.1523667,14.2920354 L29.1523667,15.8053097 C29.1523667,16.1765664 28.8537,16.4778761 28.4857,16.4778761" id="Fill-3"></path>
            </g>
        </g>
    </g>
</svg>