<?xml version="1.0" encoding="UTF-8"?>
<svg width="34px" height="55px" viewBox="0 0 34 55" version="1.1" xmlns="http://www.w3.org/2000/svg" xmlns:xlink="http://www.w3.org/1999/xlink">
    <!-- Generator: sketchtool 44.1 (41455) - http://www.bohemiancoding.com/sketch -->
    <title>8484345A-C56A-42D1-AF1E-5968ED538498</title>
    <desc>Created with sketchtool.</desc>
    <defs>
        <polygon id="path-1" points="0 54.9182 33.858 54.9182 33.858 0.0002 0 0.0002"></polygon>
    </defs>
    <g id="Screens" stroke="none" stroke-width="1" fill="none" fill-rule="evenodd">
        <g id="3-Grid" transform="translate(-692.000000, -12.000000)">
            <g id="Big-Ico-B" transform="translate(692.000000, 12.000000)">
                <path d="M32.029,54.6184 L1.827,54.6184 C0.992,54.6184 0.316,53.9414 0.316,53.1064 L0.316,15.9724 C0.316,13.5974 2.241,11.6724 4.617,11.6724 L29.24,11.6724 C31.615,11.6724 33.541,13.5974 33.541,15.9724 L33.541,53.1064 C33.541,53.9414 32.864,54.6184 32.029,54.6184 Z" id="Stroke-1" stroke="#000000" stroke-width="0.6" stroke-linecap="round" stroke-linejoin="bevel"></path>
                <path d="M0.3454,16.1091 C0.3454,13.2271 1.0574,10.0201 10.1904,10.0201 L23.6664,10.0201 C32.5014,10.0201 33.4984,13.0011 33.4984,15.8831" id="Stroke-3" stroke="#000000" stroke-width="0.6" stroke-linecap="round" stroke-linejoin="bevel"></path>
                <path d="M27.9577,52.094 L5.8987,52.094 C3.9447,52.094 2.3597,51.385 2.3597,49.205 L2.3597,32.486 C2.3597,30.306 3.9447,29.597 5.8987,29.597 L27.9577,29.597 C29.9127,29.597 31.4967,30.306 31.4967,32.486 L31.4967,49.205 C31.4967,51.385 29.9127,52.094 27.9577,52.094 Z" id="Stroke-5" stroke="#000000" stroke-width="0.6" stroke-linecap="round" stroke-linejoin="bevel"></path>
                <path d="M2.36,32.8166 C2.36,32.8166 3.48,33.8746 5.722,33.8746 L27.014,33.8746 C29.255,33.8746 31.497,32.8166 31.497,32.8166" id="Stroke-7" stroke="#000000" stroke-width="0.6" stroke-linecap="round" stroke-linejoin="bevel"></path>
                <path d="M20.1027,20.073 C20.1027,21.826 18.6817,23.248 16.9287,23.248 C15.1747,23.248 13.7537,21.826 13.7537,20.073 C13.7537,18.32 15.1747,16.899 16.9287,16.899 C18.6817,16.899 20.1027,18.32 20.1027,20.073 Z" id="Stroke-9" stroke="#000000" stroke-width="0.6" stroke-linecap="round" stroke-linejoin="bevel"></path>
                <polygon id="Stroke-11" stroke="#000000" stroke-width="0.6" stroke-linecap="round" stroke-linejoin="bevel" points="23.2775 16.4758 24.3355 14.7818 25.3945 14.7818 26.4525 16.4758 26.4525 24.9458 23.2775 24.9458"></polygon>
                <mask id="mask-2" fill="white">
                    <use xlink:href="#path-1"></use>
                </mask>
                <g id="Clip-14"></g>
                <polygon id="Stroke-13" stroke="#000000" stroke-width="0.6" stroke-linecap="round" stroke-linejoin="bevel" mask="url(#mask-2)" points="31.482 51.8482 33.559 51.8482 33.559 44.7892 31.482 44.7892"></polygon>
                <polygon id="Stroke-15" stroke="#000000" stroke-width="0.6" stroke-linecap="round" stroke-linejoin="bevel" mask="url(#mask-2)" points="0.3 51.8482 2.373 51.8482 2.373 44.7892 0.3 44.7892"></polygon>
                <path d="M8.9914,10.0198 C8.9914,6.8458 8.0364,2.6128 16.9284,2.6128 C25.8204,2.6128 24.8654,7.9038 24.8654,10.0198" id="Stroke-16" stroke="#000000" stroke-width="0.6" stroke-linecap="round" stroke-linejoin="bevel" mask="url(#mask-2)"></path>
                <path d="M9.0241,14.782 L9.0241,10.02 C9.0241,6.526 8.0361,0.3 16.9281,0.3 C25.8201,0.3 24.8651,7.277 24.8651,10.02 L24.8651,14.782" id="Stroke-17" stroke="#000000" stroke-width="0.6" stroke-linecap="round" stroke-linejoin="bevel" mask="url(#mask-2)"></path>
                <path d="M23.8068,16.8987 L25.9228,16.8987" id="Stroke-18" stroke="#000000" stroke-width="0.6" stroke-linecap="round" stroke-linejoin="bevel" mask="url(#mask-2)"></path>
                <polygon id="Stroke-19" stroke="#000000" stroke-width="0.6" stroke-linecap="round" stroke-linejoin="bevel" mask="url(#mask-2)" points="7.404 16.4758 8.463 14.7818 9.521 14.7818 10.579 16.4758 10.579 24.9458 7.404 24.9458"></polygon>
                <path d="M7.9333,16.8987 L10.0503,16.8987" id="Stroke-20" stroke="#000000" stroke-width="0.6" stroke-linecap="round" stroke-linejoin="bevel" mask="url(#mask-2)"></path>
                <polygon id="Stroke-21" stroke="#000000" stroke-width="0.6" stroke-linecap="round" stroke-linejoin="bevel" mask="url(#mask-2)" points="5.722 36.5032 7.915 36.5032 7.915 33.8752 5.722 33.8752"></polygon>
            </g>
        </g>
    </g>
</svg>