<?xml version="1.0" encoding="UTF-8"?>
<svg width="29px" height="39px" viewBox="0 0 29 39" version="1.1" xmlns="http://www.w3.org/2000/svg" xmlns:xlink="http://www.w3.org/1999/xlink">
    <!-- Generator: sketchtool 44.1 (41455) - http://www.bohemiancoding.com/sketch -->
    <title>B354F286-E772-4186-9BB3-0FE47A78973F</title>
    <desc>Created with sketchtool.</desc>
    <defs>
        <polygon id="path-1" points="0 37.24392 27.3756 37.24392 27.3756 0.000186666667 0 0.000186666667"></polygon>
    </defs>
    <g id="Screens" stroke="none" stroke-width="1" fill="none" fill-rule="evenodd">
        <g id="3-Grid" transform="translate(-910.000000, -22.000000)">
            <g id="Kids-Ico-B" transform="translate(911.000000, 23.000000)">
                <path d="M20.6666133,36.9641067 L3.22728,36.9641067 C1.59954667,36.9641067 0.279813333,35.6443733 0.279813333,34.01664 L0.279813333,14.2925067 C0.279813333,11.22744 2.76528,8.74197333 5.83034667,8.74197333 L18.0635467,8.74197333 C21.1295467,8.74197333 23.61408,11.22744 23.61408,14.2925067 L23.61408,34.01664 C23.61408,35.6443733 22.2943467,36.9641067 20.6666133,36.9641067 Z" id="Stroke-1" stroke="#000000" stroke-width="0.6" stroke-linecap="round" stroke-linejoin="bevel"></path>
                <path d="M0.28,13.74968 C0.28,10.2562133 3.98253333,7.42448 8.55026667,7.42448 L15.344,7.42448 C19.9117333,7.42448 23.6142667,10.2562133 23.6142667,13.74968" id="Stroke-3" stroke="#000000" stroke-width="0.6" stroke-linecap="round" stroke-linejoin="bevel"></path>
                <path d="M19.60196,34.7256 L4.29249333,34.7256 C2.93542667,34.7256 1.83502667,33.6252 1.83502667,32.2690667 L1.83502667,23.1812 C1.83502667,21.8250667 2.93542667,20.7246667 4.29249333,20.7246667 L19.60196,20.7246667 C20.9590267,20.7246667 22.0584933,21.8250667 22.0584933,23.1812 L22.0584933,32.2690667 C22.0584933,33.6252 20.9590267,34.7256 19.60196,34.7256 Z" id="Stroke-5" stroke="#000000" stroke-width="0.6" stroke-linecap="round" stroke-linejoin="bevel"></path>
                <path d="M1.8354,25.42456 C1.8354,25.42456 2.61286667,26.2020267 4.16873333,26.2020267 L18.9471333,26.2020267 C20.503,26.2020267 22.0588667,25.42456 22.0588667,25.42456" id="Stroke-7" stroke="#000000" stroke-width="0.6" stroke-linecap="round" stroke-linejoin="bevel"></path>
                <path d="M14.2804667,14.8134 C14.2804667,16.1023333 13.2360667,17.1467333 11.9471333,17.1467333 C10.6582,17.1467333 9.6138,16.1023333 9.6138,14.8134 C9.6138,13.5244667 10.6582,12.4800667 11.9471333,12.4800667 C13.2360667,12.4800667 14.2804667,13.5244667 14.2804667,14.8134 Z" id="Stroke-9" stroke="#000000" stroke-width="0.6" stroke-linecap="round" stroke-linejoin="bevel"></path>
                <polygon id="Stroke-11" stroke="#000000" stroke-width="0.6" stroke-linecap="round" stroke-linejoin="bevel" points="16.6138 12.4800667 17.3912667 10.9242 18.1696667 10.9242 18.9471333 12.4800667 18.9471333 18.3908667 16.6138 18.3908667"></polygon>
                <path d="M6.1138,7.4242 C6.1138,5.09086667 5.41193333,1.98006667 11.9471333,1.98006667 C18.4823333,1.98006667 17.7804667,5.86833333 17.7804667,7.4242" id="Stroke-13" stroke="#000000" stroke-width="0.6" stroke-linecap="round" stroke-linejoin="bevel"></path>
                <path d="M6.13750667,10.9242 L6.13750667,7.4242 C6.13750667,4.8566 5.41137333,0.280466667 11.9475067,0.280466667 C18.4827067,0.280466667 17.78084,5.40726667 17.78084,7.4242 L17.78084,10.9242" id="Stroke-15" stroke="#000000" stroke-width="0.6" stroke-linecap="round" stroke-linejoin="bevel"></path>
                <path d="M17.003,12.4800667 L18.5588667,12.4800667" id="Stroke-17" stroke="#000000" stroke-width="0.6" stroke-linecap="round" stroke-linejoin="bevel"></path>
                <polygon id="Stroke-19" stroke="#000000" stroke-width="0.6" stroke-linecap="round" stroke-linejoin="bevel" points="4.94666667 12.4800667 5.72413333 10.9242 6.50253333 10.9242 7.28 12.4800667 7.28 18.3908667 4.94666667 18.3908667"></polygon>
                <path d="M5.33586667,12.4800667 L6.89173333,12.4800667" id="Stroke-21" stroke="#000000" stroke-width="0.6" stroke-linecap="round" stroke-linejoin="bevel"></path>
                <mask id="mask-2" fill="white">
                    <use xlink:href="#path-1"></use>
                </mask>
                <g id="Clip-24"></g>
                <polygon id="Stroke-23" stroke="#000000" stroke-width="0.6" stroke-linecap="round" stroke-linejoin="bevel" mask="url(#mask-2)" points="4.1692 28.1345867 5.69146667 28.1345867 5.69146667 26.2025867 4.1692 26.2025867"></polygon>
                <path d="M23.5900933,17.7109333 C23.9606267,22.2021333 24.5514267,24.5009333 27.1348933,28.8269333 L25.63316,30.0290667 C25.63316,30.0290667 23.8840933,27.3121333 23.6432933,25.4492" id="Stroke-25" stroke="#000000" stroke-width="0.6" stroke-linecap="round" stroke-linejoin="bevel" mask="url(#mask-2)"></path>
                <path d="M25.02612,28.3954533 L26.09292,27.49012" id="Stroke-26" stroke="#000000" stroke-width="0.6" stroke-linecap="round" stroke-linejoin="bevel" mask="url(#mask-2)"></path>
            </g>
        </g>
    </g>
</svg>